<svg id="SvgjsSvg1041" width="288" height="288" xmlns="http://www.w3.org/2000/svg" version="1.1" xmlns:xlink="http://www.w3.org/1999/xlink" xmlns:svgjs="http://svgjs.com/svgjs"><defs id="SvgjsDefs1042"></defs><g id="SvgjsG1043"><svg xmlns="http://www.w3.org/2000/svg" data-name="Layer 1" viewBox="0 0 64 64" width="288" height="288"><path fill="none" stroke="#0f8c58" stroke-miterlimit="10" stroke-width="3" d="M32,40.83H21.48a1,1,0,0,1-1-1V25.77a2,2,0,0,0-2-2H16V15.19a6,6,0,0,1,6-6H42a6,6,0,0,1,6,6v8.58H45.53a2,2,0,0,0-2,2V39.83a1,1,0,0,1-1,1Z" class="colorStroke222 svgStroke"></path><path fill="none" stroke="#0f8c58" stroke-miterlimit="10" stroke-width="3" d="M20.48,32.52H43.53a0,0,0,0,1,0,0v7.31a1,1,0,0,1-1,1H21.48a1,1,0,0,1-1-1V32.52A0,0,0,0,1,20.48,32.52Z" class="colorStroke222 svgStroke"></path><line x1="16" x2="16" y1="49.97" y2="54.81" fill="none" stroke="#0f8c58" stroke-linecap="round" stroke-linejoin="round" stroke-width="3" class="colorStroke222 svgStroke"></line><line x1="48" x2="48" y1="49.97" y2="54.81" fill="none" stroke="#0f8c58" stroke-linecap="round" stroke-linejoin="round" stroke-width="3" class="colorStroke222 svgStroke"></line><path fill="none" stroke="#0f8c58" stroke-miterlimit="10" stroke-width="3" d="M52.48,46.78v-21a2,2,0,0,0-2-2H45.53a2,2,0,0,0-2,2V39.83a1,1,0,0,1-1,1h-21a1,1,0,0,1-1-1V25.77a2,2,0,0,0-2-2h-5a2,2,0,0,0-2,2v21a3,3,0,0,0,3,3H49.48A3,3,0,0,0,52.48,46.78Z" class="colorStroke222 svgStroke"></path></svg></g></svg>